<svg width="172" height="46" viewBox="0 0 172 46" fill="none" xmlns="http://www.w3.org/2000/svg">
    <path d="M35.4463 15.7196V31.8883L19.9955 40.7721L4.54463 31.8883V14.1117L19.9955 5.22339L28.6339 10.0021C27.5789 11.2597 26.6862 12.6296 25.9378 14.0443C25.0271 15.7555 24.3102 17.5386 23.7331 19.3441L23.5212 20.0133L23.3408 20.6106C23.2777 20.8082 23.2101 21.0014 23.147 21.199L22.9486 21.7829C22.6736 22.5554 22.3805 23.3099 22.0514 24.0375C21.3977 25.4927 20.6357 26.8491 19.6664 28.0033C19.1839 28.5782 18.6519 29.1082 18.0523 29.5708C17.4572 30.0334 16.7944 30.4331 16.0595 30.7565C15.3291 31.0799 14.5266 31.3224 13.679 31.4751C13.2552 31.5515 12.8133 31.6054 12.367 31.6413C12.1416 31.6592 11.9161 31.6682 11.6862 31.6727C11.569 31.6772 11.4563 31.6772 11.339 31.6727C11.2218 31.6727 11.1046 31.6682 10.9874 31.6637C11.0775 31.7401 11.1767 31.812 11.2759 31.8793C11.3751 31.9467 11.4743 32.0096 11.578 32.0724C11.7854 32.1982 11.9973 32.306 12.2137 32.4138C12.651 32.6204 13.1109 32.7956 13.5888 32.9258C14.5401 33.1953 15.5636 33.312 16.6005 33.2582C17.6375 33.2043 18.688 32.9707 19.6844 32.58C20.6808 32.1847 21.6141 31.6413 22.4572 30.99C22.5654 30.9092 22.6646 30.8239 22.7683 30.7385C22.872 30.6532 22.9711 30.5679 23.0703 30.4825C23.2732 30.3119 23.4626 30.1277 23.6519 29.9436C24.0216 29.5708 24.3778 29.189 24.7024 28.7848C25.3607 27.9854 25.9243 27.1275 26.4202 26.2517C26.9116 25.3714 27.3354 24.4732 27.6961 23.5569L27.9576 22.8698L28.1966 22.1781L28.4175 21.4864L28.6069 20.8666C29.1118 19.2318 29.6573 17.6284 30.284 16.0789C30.4418 15.6926 30.5996 15.3064 30.771 14.9291L30.8972 14.6417L31.028 14.3587C31.1136 14.1701 31.2038 13.9859 31.294 13.7973C31.6501 13.0517 32.0379 12.3286 32.4572 11.628C32.5654 11.4573 32.6691 11.2777 32.7773 11.107C32.8855 10.9363 32.9982 10.7657 33.1109 10.595C33.2281 10.4288 33.3408 10.2626 33.4626 10.0965C33.5212 10.0156 33.5798 9.93029 33.6429 9.84944C33.706 9.7686 33.7647 9.68776 33.8278 9.60691C34.3282 8.96466 34.8738 8.36282 35.4824 7.81039C35.5591 7.74302 35.6357 7.67565 35.7124 7.60828L35.9513 7.41066C36.1136 7.28041 36.2759 7.15466 36.4427 7.0289C36.6096 6.90314 36.7854 6.78637 36.9612 6.67409C37.1416 6.5618 37.3219 6.44952 37.5068 6.34622C37.881 6.13513 38.2732 5.9465 38.688 5.7893C38.8954 5.70396 39.1073 5.63659 39.3237 5.56923C39.4319 5.53779 39.5446 5.50635 39.6573 5.4794C39.7701 5.45245 39.8828 5.4255 40 5.40754C39.7836 5.30424 39.5536 5.23687 39.3192 5.17848C39.0848 5.12009 38.8458 5.07967 38.6023 5.04823C38.1154 4.98985 37.624 4.98535 37.128 5.02129C36.8801 5.03925 36.6321 5.07069 36.3841 5.11111C36.1362 5.15153 35.8882 5.20094 35.6492 5.26382C35.5275 5.29076 35.4058 5.32669 35.284 5.36262C35.1623 5.39855 35.0451 5.43898 34.9234 5.47491C34.8061 5.51533 34.6844 5.55575 34.5672 5.60066C34.45 5.64558 34.3327 5.69049 34.2155 5.73989C33.5077 6.03183 32.8224 6.39563 32.1821 6.81332L19.9955 0L0 11.5022V34.5022L19.9955 46L39.991 34.5022V8.12927L39.761 8.26401C37.0875 9.80453 35.4463 12.6475 35.4463 15.7196Z"
          fill="white"/>
    <path d="M76.7543 14H70.0293V17.0548H76.7543V31H79.7768V17.0548H86.5018V14H79.7768H76.7543Z" fill="white"/>
    <path d="M101.886 14H91.5115C89.834 14 88.4663 15.3823 88.4663 17.0777V27.9223C88.4663 29.6177 89.834 31 91.5115 31H101.894C103.571 31 104.939 29.6177 104.939 27.9223V17.0777C104.931 15.3823 103.571 14 101.886 14ZM101.909 27.9223C101.909 27.9376 101.901 27.9452 101.886 27.9452H91.5115C91.4963 27.9452 91.4888 27.9376 91.4888 27.9223V17.0777C91.4888 17.0624 91.4963 17.0548 91.5115 17.0548H101.894C101.909 17.0548 101.916 17.0624 101.916 17.0777V27.9223H101.909Z"
          fill="white"/>
    <path d="M107.871 17.0777V24.0274H109.382H110.893H121.321V27.9223C121.321 27.9376 121.313 27.9452 121.298 27.9452H107.871V31H121.298C122.975 31 124.343 29.6177 124.343 27.9223V20.9726H122.832H121.321H110.893V17.0777C110.893 17.0624 110.901 17.0548 110.916 17.0548H124.343V14H110.916C109.238 14 107.871 15.3823 107.871 17.0777Z"
          fill="white"/>
    <path d="M140.732 20.9726H130.305V14H127.282V20.9726V24.0274V31H130.305V24.0274H140.732V31H143.755V24.0274V20.9726V14H140.732V20.9726Z"
          fill="white"/>
    <path d="M150.125 14H147.103V31H150.125V14Z" fill="white"/>
    <path d="M168.978 14V27.9452H167.746L159.986 14H153.963V31H156.986V17.0548H158.218L165.978 31H172V14H168.978Z"
          fill="white"/>
    <path d="M52 31H55.4683L63.2285 17.0548H64.4602V31H67.4826V14H61.4604L52 31Z" fill="white"/>
</svg>
