<svg width="54" height="62" viewBox="0 0 54 62" fill="none" xmlns="http://www.w3.org/2000/svg">
    <path d="M47.8526 21.1873V42.9799L26.9939 54.9537L6.13526 42.9799V19.0201L26.9939 7.04023L38.6558 13.4812C37.2315 15.1761 36.0264 17.0225 35.016 18.9293C33.7865 21.2357 32.8188 23.6389 32.0397 26.0724L31.7536 26.9744L31.5101 27.7795C31.4249 28.0459 31.3336 28.3062 31.2484 28.5725L30.9806 29.3595C30.6093 30.4007 30.2137 31.4177 29.7694 32.3984C28.8868 34.3597 27.8582 36.1879 26.5496 37.7436C25.8983 38.5185 25.1801 39.2328 24.3706 39.8563C23.5672 40.4798 22.6725 41.0186 21.6803 41.4544C20.6943 41.8903 19.6109 42.2171 18.4666 42.423C17.8945 42.5259 17.298 42.5985 16.6954 42.6469C16.3911 42.6712 16.0868 42.6833 15.7764 42.6893C15.6181 42.6954 15.466 42.6954 15.3077 42.6893C15.1495 42.6893 14.9912 42.6833 14.833 42.6772C14.9547 42.7801 15.0886 42.877 15.2225 42.9678C15.3564 43.0586 15.4903 43.1433 15.6303 43.2281C15.9103 43.3976 16.1963 43.5429 16.4885 43.6881C17.0789 43.9666 17.6997 44.2027 18.3449 44.3783C19.6292 44.7415 21.0108 44.8988 22.4107 44.8262C23.8106 44.7536 25.2288 44.4388 26.5739 43.9121C27.9191 43.3794 29.179 42.6469 30.3172 41.7692C30.4633 41.6602 30.5972 41.5452 30.7372 41.4302C30.8771 41.3152 31.011 41.2002 31.145 41.0851C31.4188 40.8551 31.6745 40.6069 31.9301 40.3587C32.4292 39.8563 32.9101 39.3417 33.3483 38.7969C34.2369 37.7194 34.9977 36.5632 35.6673 35.3827C36.3307 34.1963 36.9028 32.9855 37.3898 31.7506L37.7428 30.8245L38.0654 29.8922L38.3636 28.96L38.6193 28.1246C39.3009 25.9211 40.0374 23.76 40.8835 21.6715C41.0965 21.1509 41.3095 20.6303 41.5408 20.1219L41.7112 19.7344L41.8877 19.3531C42.0034 19.0988 42.1251 18.8506 42.2468 18.5964C42.7277 17.5915 43.2511 16.6169 43.8172 15.6725C43.9633 15.4425 44.1032 15.2004 44.2493 14.9703C44.3954 14.7403 44.5476 14.5103 44.6997 14.2802C44.858 14.0562 45.0101 13.8323 45.1745 13.6083C45.2536 13.4993 45.3327 13.3843 45.4179 13.2753C45.5032 13.1664 45.5823 13.0574 45.6675 12.9484C46.3431 12.0828 47.0796 11.2716 47.9013 10.527C48.0047 10.4362 48.1082 10.3454 48.2117 10.2546L48.5343 9.98828C48.7534 9.81273 48.9725 9.64323 49.1977 9.47374C49.4229 9.30424 49.6603 9.14685 49.8977 8.99551C50.1411 8.84417 50.3846 8.69283 50.6341 8.5536C51.1393 8.26909 51.6688 8.01484 52.2288 7.80297C52.5088 7.68795 52.7949 7.59715 53.087 7.50635C53.2331 7.46397 53.3853 7.4216 53.5374 7.38528C53.6896 7.34896 53.8418 7.31263 54 7.28842C53.7078 7.14919 53.3974 7.05839 53.0809 6.97969C52.7644 6.901 52.4418 6.84651 52.1132 6.80414C51.4558 6.72544 50.7924 6.71939 50.1229 6.76782C49.7881 6.79203 49.4533 6.83441 49.1186 6.88889C48.7838 6.94337 48.4491 7.00996 48.1265 7.09471C47.9621 7.13103 47.7978 7.17946 47.6335 7.22789C47.4691 7.27631 47.3109 7.33079 47.1465 7.37922C46.9883 7.4337 46.8239 7.48819 46.6657 7.54872C46.5074 7.60926 46.3492 7.66979 46.1909 7.73638C45.2353 8.12986 44.3102 8.62019 43.4459 9.18317L26.9939 0L0 15.503V46.503L26.9939 62L53.9878 46.503V10.9568L53.6774 11.1384C50.0681 13.2148 47.8526 17.0467 47.8526 21.1873Z"
          fill="white"/>
</svg>
