<svg width="24" height="24" viewBox="0 0 24 24" fill="none" xmlns="http://www.w3.org/2000/svg">
    <path d="M4.00206 8.27717C4.00154 7.97928 4.09434 7.69059 4.26434 7.46122C4.36007 7.33212 4.47764 7.22541 4.61031 7.14719C4.74299 7.06897 4.88816 7.02078 5.03751 7.00538C5.18687 6.98999 5.33748 7.00769 5.4807 7.05747C5.62393 7.10724 5.75697 7.18812 5.8722 7.29548L11.9844 13.0071L18.1079 7.49946C18.2246 7.39356 18.3588 7.31448 18.5028 7.26675C18.6469 7.21903 18.798 7.20361 18.9474 7.22138C19.0968 7.23915 19.2416 7.28977 19.3735 7.37031C19.5054 7.45085 19.6217 7.55973 19.7158 7.6907C19.8196 7.82261 19.8979 7.97709 19.9458 8.14444C19.9937 8.31179 20.0101 8.4884 19.994 8.66318C19.978 8.83796 19.9298 9.00715 19.8524 9.16012C19.7751 9.31309 19.6704 9.44654 19.5447 9.55209L12.7028 15.71C12.4987 15.8975 12.2428 16 11.9787 16C11.7145 16 11.4586 15.8975 11.2546 15.71L4.41258 9.33535C4.27458 9.20746 4.16549 9.04499 4.09417 8.86113C4.02284 8.67728 3.99129 8.47721 4.00206 8.27717Z" fill="black"/>
</svg>
