<svg width="24" height="24" viewBox="0 0 24 24" fill="none" xmlns="http://www.w3.org/2000/svg">
    <path d="M8.27717 19.9979C7.97928 19.9985 7.69059 19.9057 7.46122 19.7357C7.33212 19.6399 7.22541 19.5224 7.14719 19.3897C7.06897 19.257 7.02078 19.1118 7.00538 18.9625C6.98999 18.8131 7.00769 18.6625 7.05747 18.5193C7.10724 18.3761 7.18812 18.243 7.29548 18.1278L13.0071 12.0156L7.49946 5.89208C7.39356 5.77543 7.31448 5.64122 7.26675 5.49715C7.21903 5.35308 7.20361 5.202 7.22138 5.05259C7.23916 4.90317 7.28977 4.75837 7.37031 4.62651C7.45085 4.49464 7.55973 4.37832 7.6907 4.28421C7.82261 4.1804 7.97709 4.1021 8.14444 4.05422C8.31179 4.00633 8.4884 3.98991 8.66318 4.00597C8.83796 4.02203 9.00715 4.07023 9.16012 4.14755C9.31309 4.22487 9.44654 4.32963 9.55209 4.45526L15.71 11.2972C15.8975 11.5013 16 11.7572 16 12.0213C16 12.2855 15.8975 12.5414 15.71 12.7454L9.33535 19.5874C9.20746 19.7254 9.04499 19.8345 8.86113 19.9058C8.67728 19.9772 8.47721 20.0087 8.27717 19.9979Z" fill="black"/>
</svg>
