<svg width="24" height="24" viewBox="0 0 24 24" fill="none" xmlns="http://www.w3.org/2000/svg">
    <path fill-rule="evenodd" clip-rule="evenodd"
          d="M3.25 12C3.25 7.16739 7.16739 3.25 12 3.25C16.8326 3.25 20.75 7.16739 20.75 12C20.75 16.8326 16.8326 20.75 12 20.75C7.16739 20.75 3.25 16.8326 3.25 12ZM12 4.75C7.99581 4.75 4.75 7.99581 4.75 12C4.75 16.0042 7.99581 19.25 12 19.25C16.0042 19.25 19.25 16.0042 19.25 12C19.25 7.99581 16.0042 4.75 12 4.75Z"
          fill="#999999"/>
    <path fill-rule="evenodd" clip-rule="evenodd"
          d="M6.40674 17.5397C6.40577 17.541 6.40479 17.5422 6.40381 17.5434L6.40361 17.5437L6.40351 17.5438C6.40351 17.5438 6.40374 17.5435 6.40418 17.543L6.40541 17.5414L6.40626 17.5403L6.40674 17.5397ZM17.5971 17.5435C17.8533 17.8657 18.322 17.9213 18.6466 17.667C18.9726 17.4115 19.0298 16.9401 18.7744 16.614L18.1985 17.0653C18.7744 16.614 18.7741 16.6137 18.7738 16.6133L18.7732 16.6125L18.7719 16.6108L18.7687 16.6068L18.7602 16.5964C18.7536 16.5883 18.7452 16.5781 18.7349 16.566C18.7143 16.5417 18.6862 16.5095 18.6503 16.4705C18.5785 16.3926 18.4755 16.2875 18.3396 16.1646C18.0678 15.9188 17.6639 15.6012 17.1141 15.287C16.0099 14.656 14.3362 14.0498 12 14.0498C9.66376 14.0498 7.99032 14.656 6.88622 15.2871C6.33657 15.6013 5.93273 15.9189 5.661 16.1647C5.52514 16.2876 5.4222 16.3927 5.35041 16.4706C5.31451 16.5096 5.28638 16.5418 5.26578 16.5661C5.25548 16.5782 5.24706 16.5884 5.2405 16.5965L5.23205 16.607L5.22885 16.611L5.22751 16.6127L5.22691 16.6134C5.22662 16.6138 5.22635 16.6142 5.81681 17.0766L5.22635 16.6142C4.97094 16.9403 5.02825 17.4117 5.35436 17.6671C5.67899 17.9213 6.14762 17.8657 6.40381 17.5434L6.41003 17.536C6.41771 17.5269 6.43217 17.5102 6.45363 17.4869C6.49655 17.4403 6.56729 17.3675 6.66736 17.277C6.86748 17.096 7.18444 16.8444 7.63059 16.5893C8.51809 16.082 9.93625 15.5498 12 15.5498C14.0638 15.5498 15.4821 16.082 16.3699 16.5894C16.8161 16.8444 17.1332 17.096 17.3334 17.2771C17.4335 17.3676 17.5043 17.4404 17.5472 17.487C17.5687 17.5103 17.5832 17.527 17.5909 17.5361L17.5971 17.5435Z"
          fill="#999999"/>
    <path fill-rule="evenodd" clip-rule="evenodd"
          d="M9.77259 7.37281C10.3633 6.78207 11.1645 6.4502 12 6.4502C12.8354 6.4502 13.6366 6.78207 14.2274 7.37281C14.8181 7.96355 15.15 8.76476 15.15 9.6002C15.15 10.4356 14.8181 11.2368 14.2274 11.8276C13.6366 12.4183 12.8354 12.7502 12 12.7502C11.1645 12.7502 10.3633 12.4183 9.77259 11.8276C9.18185 11.2368 8.84998 10.4356 8.84998 9.6002C8.84998 8.76476 9.18185 7.96355 9.77259 7.37281ZM12 11.2502C12.4376 11.2502 12.8573 11.0764 13.1667 10.7669C13.4761 10.4575 13.65 10.0378 13.65 9.6002C13.65 9.16259 13.4761 8.7429 13.1667 8.43347C12.8573 8.12403 12.4376 7.9502 12 7.9502C11.5624 7.9502 11.1427 8.12403 10.8332 8.43347C10.5238 8.7429 10.35 9.16259 10.35 9.6002C10.35 10.0378 10.5238 10.4575 10.8332 10.7669C11.1427 11.0764 11.5624 11.2502 12 11.2502Z"
          fill="#999999"/>
</svg>
