<svg width="24" height="22" viewBox="0 0 24 22" fill="none" xmlns="http://www.w3.org/2000/svg">
    <g opacity="0.5">
        <path d="M8 3.66659V14.6666C8 15.1528 8.21071 15.6191 8.58579 15.9629C8.96086 16.3068 9.46957 16.4999 10 16.4999H18C18.5304 16.4999 19.0391 16.3068 19.4142 15.9629C19.7893 15.6191 20 15.1528 20 14.6666V6.63842C20 6.39418 19.9467 6.15241 19.8433 5.92731C19.7399 5.70221 19.5885 5.49831 19.398 5.32759L16.083 2.35575C15.7094 2.02085 15.2076 1.83331 14.685 1.83325H10C9.46957 1.83325 8.96086 2.02641 8.58579 2.37022C8.21071 2.71404 8 3.18036 8 3.66659V3.66659Z"
              stroke="#232323" stroke-width="1.8" stroke-linecap="round" stroke-linejoin="round"/>
        <path d="M16 16.4998V18.3332C16 18.8194 15.7893 19.2857 15.4142 19.6295C15.0391 19.9734 14.5304 20.1665 14 20.1665H6C5.46957 20.1665 4.96086 19.9734 4.58579 19.6295C4.21071 19.2857 4 18.8194 4 18.3332V8.24984C4 7.76361 4.21071 7.29729 4.58579 6.95347C4.96086 6.60966 5.46957 6.4165 6 6.4165H8"
              stroke="#232323" stroke-width="1.8" stroke-linecap="round" stroke-linejoin="round"/>
    </g>
</svg>
