<svg width="24" height="24" viewBox="0 0 24 24" fill="none" xmlns="http://www.w3.org/2000/svg">
    <path fill-rule="evenodd" clip-rule="evenodd"
          d="M5.77778 4.75C5.50519 4.75 5.24377 4.85828 5.05103 5.05103C4.85828 5.24377 4.75 5.50519 4.75 5.77778V18.2222C4.75 18.4948 4.85828 18.7562 5.05103 18.949C5.24378 19.1417 5.50519 19.25 5.77778 19.25H9.33333C9.74755 19.25 10.0833 19.5858 10.0833 20C10.0833 20.4142 9.74755 20.75 9.33333 20.75H5.77778C5.10737 20.75 4.46442 20.4837 3.99037 20.0096C3.51632 19.5356 3.25 18.8926 3.25 18.2222V5.77778C3.25 5.10737 3.51632 4.46442 3.99037 3.99037C4.46442 3.51632 5.10737 3.25 5.77778 3.25H9.33333C9.74755 3.25 10.0833 3.58579 10.0833 4C10.0833 4.41421 9.74755 4.75 9.33333 4.75H5.77778Z"
          fill="#999999"/>
    <path fill-rule="evenodd" clip-rule="evenodd"
          d="M15.0252 7.02509C15.3181 6.7322 15.793 6.7322 16.0859 7.02509L20.5303 11.4695C20.8232 11.7624 20.8232 12.2373 20.5303 12.5302L16.0859 16.9746C15.793 17.2675 15.3181 17.2675 15.0252 16.9746C14.7323 16.6817 14.7323 16.2069 15.0252 15.914L18.9393 11.9999L15.0252 8.08575C14.7323 7.79286 14.7323 7.31798 15.0252 7.02509Z"
          fill="#999999"/>
    <path fill-rule="evenodd" clip-rule="evenodd"
          d="M8.58337 12C8.58337 11.5858 8.91916 11.25 9.33337 11.25H20C20.4143 11.25 20.75 11.5858 20.75 12C20.75 12.4142 20.4143 12.75 20 12.75H9.33337C8.91916 12.75 8.58337 12.4142 8.58337 12Z"
          fill="#999999"/>
</svg>
