<svg width="31" height="22" viewBox="0 0 31 22" fill="none" xmlns="http://www.w3.org/2000/svg">
    <path d="M26.2632 9.60457C25.5858 4.19571 21.018 0 15.5 0C11.2282 0 7.5175 2.53 5.82335 6.51986C2.49395 7.53029 0 10.7171 0 14.1429C0 18.3181 3.23795 21.7093 7.2974 21.9544V22H24.7845V21.9953L24.8 22C28.2193 22 31 19.1809 31 15.7143C30.9982 14.3055 30.5305 12.9381 29.6718 11.8305C28.8131 10.7229 27.613 9.93919 26.2632 9.60457ZM9.3 11H13.95V6.28571H17.05V11H21.7L15.5 18.8571L9.3 11Z"
          fill="#8E8E8E"/>
</svg>
