<svg width="31" height="30" viewBox="0 0 31 30" fill="none" xmlns="http://www.w3.org/2000/svg">
    <path d="M15.1908 0C11.0639 0 10.5487 0.0187498 8.92837 0.0899989C7.66819 0.115985 6.4215 0.351794 5.24081 0.787491C4.22685 1.16378 3.30835 1.75419 2.54951 2.51747C1.77585 3.26622 1.17782 4.17334 0.797515 5.17494C0.355662 6.34062 0.116831 7.57175 0.0911445 8.81615C0.0151908 10.4161 0 10.9249 0 14.9998C0 19.0748 0.0189884 19.5835 0.0911445 21.1835C0.117582 22.4278 0.356389 23.6588 0.797515 24.8247C1.17892 25.8258 1.77681 26.7327 2.54951 27.4822C3.30814 28.2457 4.2267 28.8362 5.24081 29.2122C6.42157 29.6476 7.66822 29.8834 8.92837 29.9097C10.5487 29.9847 11.0639 29.9997 15.1908 29.9997C19.3176 29.9997 19.8328 29.9809 21.4531 29.9097C22.7132 29.8829 23.9598 29.6471 25.1407 29.2122C26.1501 28.827 27.0668 28.2377 27.832 27.4822C28.5972 26.7266 29.1939 25.8214 29.584 24.8247C30.0251 23.6588 30.2639 22.4278 30.2904 21.1835C30.3663 19.5835 30.3815 19.0748 30.3815 14.9998C30.3815 10.9249 30.3625 10.4161 30.2904 8.81615C30.2634 7.57188 30.0246 6.34096 29.584 5.17494C29.2024 4.17398 28.6045 3.26712 27.832 2.51747C27.0739 1.75328 26.1552 1.16272 25.1407 0.787491C23.9601 0.351308 22.7134 0.115483 21.4531 0.0899989C19.8328 0.0149998 19.3176 0 15.1908 0ZM15.1908 2.69997C19.2416 2.69997 19.729 2.71997 21.3304 2.78872C22.2933 2.80018 23.247 2.97567 24.1495 3.30746C24.8057 3.55516 25.4017 3.93666 25.8986 4.42707C26.3955 4.91749 26.7821 5.50581 27.0332 6.15368C27.368 7.04507 27.5449 7.98674 27.556 8.9374C27.6282 10.5199 27.6446 10.9949 27.6446 14.9998C27.6446 19.0048 27.6257 19.481 27.551 21.0623C27.5334 22.0132 27.3532 22.9543 27.018 23.846C26.7705 24.497 26.3817 25.0867 25.8787 25.5735C25.3882 26.0719 24.7915 26.4562 24.1318 26.6984C23.2255 27.029 22.2685 27.2036 21.3025 27.2147C19.6897 27.2859 19.215 27.3022 15.1515 27.3022C11.088 27.3022 10.612 27.2834 9.00052 27.2097C8.03377 27.1925 7.07687 27.0146 6.16998 26.6834C5.51021 26.4421 4.91367 26.0576 4.42431 25.5585C3.91615 25.0769 3.52642 24.4868 3.285 23.8335C2.95045 22.9382 2.77072 21.9938 2.75332 21.0398C2.69636 19.4648 2.6761 18.9785 2.6761 14.9848C2.6761 10.9911 2.69636 10.5024 2.75332 8.90865C2.77222 7.95334 2.95411 7.00802 3.29133 6.11243C3.52897 5.45687 3.91922 4.86558 4.43064 4.3862C4.91516 3.88125 5.51314 3.49588 6.17631 3.26121C7.07631 2.92931 8.02726 2.75216 8.98786 2.73747C10.6019 2.68122 11.0766 2.66247 15.1389 2.66247L15.1908 2.69997ZM15.1908 7.29741C13.648 7.29741 12.1398 7.74915 10.8571 8.59551C9.57428 9.44186 8.57447 10.6448 7.98408 12.0522C7.39368 13.4597 7.2392 15.0084 7.54019 16.5025C7.84117 17.9966 8.58409 19.369 9.675 20.4463C10.7659 21.5235 12.1558 22.257 13.669 22.5542C15.1821 22.8514 16.7505 22.6989 18.1759 22.1159C19.6012 21.5329 20.8195 20.5457 21.6766 19.2791C22.5337 18.0124 22.9912 16.5232 22.9912 14.9998C22.9912 12.957 22.1694 10.9979 20.7065 9.5534C19.2436 8.10892 17.2596 7.29741 15.1908 7.29741V7.29741ZM15.1908 19.9998C14.1893 19.9998 13.2103 19.7065 12.3776 19.1571C11.5449 18.6077 10.8959 17.8268 10.5126 16.9132C10.1294 15.9996 10.0291 14.9943 10.2245 14.0244C10.4198 13.0545 10.9021 12.1636 11.6103 11.4643C12.3184 10.7651 13.2207 10.2889 14.2029 10.096C15.1851 9.90303 16.2033 10.002 17.1285 10.3805C18.0538 10.7589 18.8446 11.3998 19.401 12.222C19.9574 13.0442 20.2543 14.0109 20.2543 14.9998C20.2543 16.3259 19.7209 17.5976 18.7712 18.5353C17.8216 19.473 16.5337 19.9998 15.1908 19.9998ZM25.123 6.99367C25.1232 7.34972 25.0165 7.69785 24.8164 7.99402C24.6162 8.29019 24.3316 8.5211 23.9986 8.65752C23.6655 8.79395 23.2989 8.82977 22.9452 8.76046C22.5915 8.69115 22.2666 8.51982 22.0116 8.26814C21.7565 8.01646 21.5828 7.69573 21.5123 7.34654C21.4419 6.99734 21.4779 6.63536 21.6158 6.30639C21.7538 5.97741 21.9874 5.69622 22.2872 5.49838C22.587 5.30054 22.9395 5.19494 23.3001 5.19494C23.7832 5.19527 24.2465 5.38484 24.5882 5.72206C24.93 6.05928 25.1223 6.5166 25.123 6.99367V6.99367Z"
          fill="#C7D3DC"/>
</svg>