<svg width="31" height="30" viewBox="0 0 31 30" fill="none" xmlns="http://www.w3.org/2000/svg">
    <path d="M26.1782 25.5649H21.6792V18.6037C21.6792 16.9437 21.645 14.8075 19.3348 14.8075C16.9891 14.8075 16.6308 16.6137 16.6308 18.4812V25.5649H12.1318V11.25H16.4536V13.2013H16.5118C16.9449 12.4711 17.5702 11.8705 18.3214 11.4633C19.0726 11.0561 19.9215 10.8575 20.7779 10.8888C25.3351 10.8888 26.1795 13.8513 26.1795 17.7075V25.5649H26.1782ZM7.05052 9.29132C6.53376 9.29156 6.02852 9.14049 5.59871 8.85721C5.1689 8.57392 4.83381 8.17115 4.63582 7.69981C4.43783 7.22848 4.38583 6.70976 4.4864 6.20925C4.58697 5.70873 4.83559 5.24891 5.20083 4.88792C5.56606 4.52693 6.03149 4.28099 6.53828 4.1812C7.04507 4.0814 7.57044 4.13225 8.04797 4.32729C8.52549 4.52233 8.93372 4.85282 9.22102 5.27695C9.50833 5.70109 9.66182 6.19983 9.66207 6.7101C9.66257 7.049 9.59537 7.38467 9.46434 7.69789C9.33331 8.01112 9.141 8.29576 8.89843 8.53551C8.65586 8.77526 8.36779 8.96543 8.0507 9.09512C7.73361 9.22481 7.39373 9.29148 7.05052 9.29132ZM9.30635 25.5649H4.79469V11.25H9.30635V25.5649ZM28.429 0.000175733H2.53634C2.24541 -0.00329218 1.95664 0.0498609 1.68652 0.1566C1.4164 0.263338 1.17022 0.421572 0.962037 0.622264C0.753853 0.822957 0.587744 1.06218 0.473195 1.32626C0.358647 1.59035 0.297904 1.87413 0.294434 2.1614L0.294434 27.8386C0.297738 28.1259 0.358369 28.4098 0.472859 28.6739C0.587349 28.9381 0.753452 29.1774 0.96167 29.3781C1.16989 29.5788 1.41613 29.7371 1.68633 29.8437C1.95652 29.9504 2.24537 30.0035 2.53634 29.9998H28.4252C29.0137 30.0072 29.5811 29.7838 30.003 29.3786C30.4249 28.9735 30.6669 28.4197 30.6759 27.8386V2.1614C30.6669 1.58033 30.4249 1.0265 30.003 0.621361C29.5811 0.216217 29.0137 -0.00717299 28.4252 0.000175733H28.429Z" fill="#C7D3DC"/>
</svg>
