<svg width="52" height="64" viewBox="0 0 52 64" fill="none" xmlns="http://www.w3.org/2000/svg">
    <path d="M26 28.8333C28.6234 28.8333 30.75 26.7066 30.75 24.0833C30.75 21.4599 28.6234 19.3333 26 19.3333C23.3766 19.3333 21.25 21.4599 21.25 24.0833C21.25 26.7066 23.3766 28.8333 26 28.8333Z" fill="#EE574C"/>
    <path d="M26.0003 0.333252C19.3252 0.332918 12.9196 2.96716 8.17593 7.66342C3.43222 12.3597 0.733744 18.7384 0.666992 25.4133C0.666992 42.7666 22.992 62.0833 23.942 62.9066C24.5156 63.3972 25.2455 63.6668 26.0003 63.6668C26.7551 63.6668 27.4851 63.3972 28.0587 62.9066C29.167 62.0833 51.3337 42.7666 51.3337 25.4133C51.2669 18.7384 48.5684 12.3597 43.8247 7.66342C39.081 2.96716 32.6755 0.332918 26.0003 0.333252ZM26.0003 35.1666C23.8082 35.1666 21.6654 34.5166 19.8428 33.2987C18.0201 32.0809 16.5995 30.3499 15.7607 28.3247C14.9218 26.2994 14.7023 24.071 15.13 21.921C15.5576 19.771 16.6132 17.7962 18.1632 16.2462C19.7133 14.6961 21.6881 13.6405 23.8381 13.2129C25.988 12.7852 28.2165 13.0047 30.2417 13.8436C32.2669 14.6825 33.9979 16.103 35.2158 17.9257C36.4336 19.7483 37.0837 21.8912 37.0837 24.0833C37.0837 27.0227 35.9159 29.8418 33.8374 31.9204C31.7589 33.9989 28.9398 35.1666 26.0003 35.1666Z" fill="#EE574C"/>
</svg>
