<svg width="33" height="23" viewBox="0 0 33 23" fill="none" xmlns="http://www.w3.org/2000/svg">
    <path d="M13.25 9.87495H8.53912L8.54075 9.86032C8.75293 8.82135 9.16821 7.83451 9.76275 6.95645C10.6475 5.6529 11.8885 4.63133 13.3377 4.01357C13.8285 3.80557 14.3404 3.64632 14.862 3.5407C15.9441 3.32131 17.0592 3.32131 18.1413 3.5407C19.6963 3.85935 21.1233 4.62849 22.2444 5.75232L24.5454 3.45782C23.5083 2.42048 22.2813 1.59239 20.9314 1.0187C20.2429 0.727219 19.5271 0.505121 18.7945 0.355697C17.283 0.0485894 15.7251 0.0485894 14.2136 0.355697C13.4805 0.50574 12.7641 0.728379 12.0751 1.02032C10.0447 1.88174 8.30664 3.31172 7.07013 5.13807C6.23794 6.36958 5.65599 7.75268 5.35738 9.2087C5.31188 9.42807 5.2875 9.65232 5.255 9.87495H0.25L6.75 16.3749L13.25 9.87495ZM19.75 13.1249H24.4609L24.4593 13.1379C24.0347 15.2208 22.807 17.0527 21.0419 18.2372C20.1641 18.8322 19.1771 19.2475 18.138 19.4592C17.0565 19.6786 15.9419 19.6786 14.8604 19.4592C13.8214 19.247 12.8346 18.8317 11.9565 18.2372C11.5253 17.9455 11.1226 17.6136 10.754 17.2459L8.45625 19.5437C9.49382 20.5807 10.7214 21.4083 12.0719 21.9812C12.7609 22.2737 13.4808 22.4963 14.2087 22.6442C15.7197 22.9515 17.277 22.9515 18.788 22.6442C21.7009 22.0396 24.2631 20.3228 25.9299 17.8586C26.7612 16.628 27.3426 15.246 27.641 13.7912C27.6849 13.5718 27.7109 13.3476 27.7434 13.1249H32.75L26.25 6.62495L19.75 13.1249Z" fill="#8E8E8E"/>
</svg>
