<svg width="30" height="26" viewBox="0 0 30 26" fill="none" xmlns="http://www.w3.org/2000/svg">
    <path d="M27.3002 0C26.9095 0.0232329 26.5249 0.107617 26.1609 0.249997C25.9078 0.374996 24.7685 0.87499 22.8696 1.62498C20.9708 2.37497 18.8187 3.37496 16.287 4.37495C11.2234 6.49992 5.52684 8.8749 2.61528 10.1249C2.24035 10.2044 1.89194 10.3764 1.60256 10.6249C1.30715 10.8471 1.06375 11.1297 0.888984 11.4532C0.714214 11.7768 0.612181 12.1338 0.589844 12.4999C0.653585 13.1467 0.918957 13.7581 1.34938 14.2498C1.72915 14.7498 2.10892 14.7498 2.48869 14.9998C3.5014 15.3748 6.53955 16.6248 7.80545 17.1248C8.31181 18.4998 9.32452 21.7497 9.5777 22.4997C9.71372 22.9882 9.92736 23.4523 10.2107 23.8747C10.3372 23.9997 10.4638 24.2497 10.717 24.3747C10.8436 24.3747 10.8436 24.4997 10.9702 24.4997H11.2234C11.4765 24.4997 11.6031 24.6247 11.8563 24.6247C12.3066 24.6264 12.7472 24.4959 13.1222 24.2497L16.5401 21.3748L20.7176 25.2497C20.9708 25.1247 21.6037 25.8747 22.8696 25.8747C23.2338 25.8889 23.5962 25.8169 23.9265 25.6647C24.2568 25.5125 24.5455 25.2845 24.7685 24.9997C25.1682 24.5862 25.4328 24.0636 25.528 23.4997C25.6546 23.2497 29.7054 3.37496 29.7054 3.37496C29.832 2.84051 29.832 2.28443 29.7054 1.74998C29.5656 1.17729 29.2014 0.682776 28.6927 0.374996C28.2682 0.135514 27.7891 0.00647759 27.3002 0ZM26.7939 3.12496C26.6673 3.99995 22.9962 21.7497 22.8696 22.8747L18.6922 19.1248C18.1812 18.6545 17.5151 18.3827 16.817 18.3598C16.1189 18.3368 15.436 18.5641 14.8945 18.9998L12.7424 20.7498L13.8818 16.3748C13.8818 16.3748 21.7303 8.6249 22.1101 8.1249C22.4898 7.74991 22.6164 7.62491 22.6164 7.49991C22.612 7.43505 22.5839 7.37398 22.5373 7.32802C22.4908 7.28205 22.4289 7.2543 22.3633 7.24992C22.1728 7.28107 21.9964 7.36819 21.8569 7.49991C20.2112 8.4999 12.9956 12.4999 9.5777 14.4998C9.45111 14.3748 9.32452 14.3748 9.19794 14.2498C8.05863 13.7498 5.90661 12.8748 4.64071 12.3749C7.67886 11.1249 12.869 8.9999 17.6794 6.99992C20.2112 5.99993 22.6164 4.99994 24.3887 4.24995C25.6546 3.62496 26.4141 3.37496 26.7939 3.12496Z" fill="#C7D3DC"/>
</svg>
