<svg width="31" height="26" viewBox="0 0 31 26" fill="none" xmlns="http://www.w3.org/2000/svg">
    <path d="M30.9414 3.71138C29.804 4.20588 28.599 4.53229 27.3653 4.68012C28.6642 3.90919 29.6368 2.7002 30.1034 1.27641C28.8753 1.97997 27.5378 2.47794 26.145 2.75014C25.2917 1.8496 24.1839 1.22322 22.9655 0.952372C21.747 0.681523 20.4743 0.778718 19.3125 1.23133C18.1507 1.68395 17.1536 2.47106 16.4507 3.49044C15.7478 4.50982 15.3716 5.71436 15.3709 6.94759C15.3709 7.42039 15.4248 7.8917 15.5317 8.35257C13.0566 8.23575 10.6342 7.60534 8.42234 6.50242C6.21045 5.3995 4.2587 3.84882 2.69423 1.9514C2.13571 2.88866 1.84439 3.95766 1.85115 5.04511C1.84954 6.05855 2.10155 7.05668 2.58476 7.95077C3.06797 8.84486 3.76742 9.60721 4.62093 10.1701C3.63163 10.1376 2.66456 9.8719 1.80051 9.39506V9.47131C1.80112 10.8909 2.29878 12.2667 3.20917 13.3654C4.11955 14.4641 5.38665 15.2183 6.79574 15.5C5.88234 15.743 4.92517 15.7794 3.99558 15.6062C4.39563 16.8278 5.17159 17.8958 6.21536 18.6614C7.25912 19.427 8.51872 19.8521 9.8187 19.8774C7.61525 21.582 4.89586 22.5064 2.09673 22.5024C1.60289 22.5055 1.10926 22.4813 0.618164 22.4299C3.47381 24.235 6.79391 25.1933 10.1845 25.1911C12.5151 25.2077 14.8258 24.767 16.9824 23.8945C19.139 23.0221 21.0986 21.7352 22.7475 20.1088C24.3963 18.4823 25.7015 16.5486 26.5872 14.42C27.4729 12.2913 27.9216 10.0101 27.9071 7.70883C27.9071 7.44759 27.9071 7.18384 27.8881 6.92134C29.11 6.05218 30.1639 4.9734 30.9997 3.73638L30.9414 3.71138Z" fill="#C7D3DC"/>
</svg>
