<svg width="21" height="11" viewBox="0 0 21 11" fill="none" xmlns="http://www.w3.org/2000/svg">
    <path d="M0.291672 1.58321C0.291006 1.24247 0.409679 0.912252 0.627089 0.64988C0.749514 0.502211 0.899872 0.380146 1.06954 0.290675C1.23922 0.201203 1.42487 0.146083 1.61588 0.128473C1.80689 0.110862 1.99949 0.131107 2.18266 0.188047C2.36584 0.244987 2.53598 0.337502 2.68334 0.460296L10.5 6.99363L18.3313 0.693632C18.4804 0.572494 18.6521 0.482031 18.8363 0.427443C19.0206 0.372855 19.2138 0.355218 19.4049 0.375546C19.5959 0.395874 19.7811 0.453765 19.9498 0.545894C20.1184 0.638022 20.2672 0.762571 20.3875 0.912381C20.5203 1.06327 20.6204 1.23997 20.6816 1.43139C20.7429 1.62282 20.7639 1.82483 20.7433 2.02476C20.7228 2.22469 20.6612 2.41821 20.5623 2.59319C20.4634 2.76816 20.3294 2.92081 20.1688 3.04155L11.4188 10.0853C11.1578 10.2998 10.8305 10.4171 10.4927 10.4171C10.1549 10.4171 9.82762 10.2998 9.56667 10.0853L0.816673 2.79363C0.64019 2.64733 0.500679 2.46149 0.409462 2.25119C0.318247 2.04088 0.277891 1.81204 0.291672 1.58321Z"
          fill="white"/>
</svg>
