<svg width="11" height="17" viewBox="0 0 11 17" fill="none" xmlns="http://www.w3.org/2000/svg">
    <path d="M1.58321 16.6837C1.24247 16.6842 0.912248 16.5875 0.649878 16.4102C0.50221 16.3104 0.380146 16.1877 0.290675 16.0494C0.201203 15.911 0.146084 15.7596 0.128474 15.6039C0.110863 15.4481 0.131108 15.291 0.188047 15.1417C0.244987 14.9923 0.337501 14.8536 0.460295 14.7334L6.99359 8.35923L0.693629 1.97318C0.572491 1.85154 0.482029 1.71157 0.427441 1.56133C0.372854 1.41109 0.355217 1.25353 0.375545 1.09771C0.395873 0.941885 0.453764 0.790878 0.545892 0.653361C0.63802 0.515845 0.762568 0.394532 0.912377 0.296395C1.06326 0.188134 1.23996 0.106474 1.43139 0.0565401C1.62281 0.00660637 1.82482 -0.0105226 2.02475 0.00622724C2.22468 0.0229771 2.4182 0.0732447 2.59317 0.153875C2.76815 0.234506 2.92079 0.343758 3.04153 0.474777L10.0852 7.61003C10.2997 7.82282 10.417 8.08973 10.417 8.36518C10.417 8.64063 10.2997 8.90754 10.0852 9.12033L2.79362 16.2556C2.64732 16.3995 2.46148 16.5133 2.25118 16.5876C2.04087 16.662 1.81203 16.6949 1.58321 16.6837Z"
          fill="black" fill-opacity="0.2"/>
</svg>
