<svg width="24" height="24" viewBox="0 0 24 24" fill="none" xmlns="http://www.w3.org/2000/svg">
    <path fill-rule="evenodd" clip-rule="evenodd"
          d="M17.0246 4.92468C17.5909 4.35845 18.5089 4.35844 19.0751 4.92466C19.6414 5.49089 19.6414 6.40894 19.0752 6.97518L12.8976 13.1528C12.8958 13.1546 12.894 13.1564 12.8923 13.1582L6.97519 19.0753C6.40896 19.6416 5.49092 19.6416 4.92468 19.0753C4.35845 18.5091 4.35844 17.5911 4.92467 17.0248L17.0246 4.92468Z"
          fill="#727272"/>
    <path fill-rule="evenodd" clip-rule="evenodd"
          d="M19.0753 19.0753C18.5091 19.6416 17.591 19.6416 17.0248 19.0753L10.8472 12.8977C10.847 12.8975 10.8468 12.8973 10.8467 12.8972L4.92467 6.97518C4.35844 6.40895 4.35844 5.49091 4.92467 4.92467C5.49091 4.35844 6.40895 4.35844 6.97518 4.92467L12.8972 10.8467C12.8973 10.8468 12.8975 10.847 12.8977 10.8472L19.0753 17.0248C19.6416 17.591 19.6416 18.5091 19.0753 19.0753Z"
          fill="#727272"/>
</svg>
