<svg width="11" height="17" viewBox="0 0 11 17" fill="none" xmlns="http://www.w3.org/2000/svg">
    <path d="M9.41673 0.0347442C9.75747 0.0342006 10.0877 0.130972 10.3501 0.308262C10.4977 0.408096 10.6198 0.530706 10.7093 0.669067C10.7987 0.807429 10.8539 0.958823 10.8715 1.11458C10.8891 1.27034 10.8688 1.4274 10.8119 1.57677C10.755 1.72614 10.6624 1.86489 10.5396 1.98505L4.00631 8.35924L10.3063 14.7453C10.4274 14.867 10.5179 15.0069 10.5725 15.1572C10.6271 15.3074 10.6447 15.465 10.6244 15.6208C10.6041 15.7766 10.5462 15.9276 10.454 16.0651C10.3619 16.2027 10.2374 16.324 10.0876 16.4221C9.93667 16.5304 9.75997 16.612 9.56855 16.662C9.37712 16.7119 9.17511 16.729 8.97518 16.7123C8.77525 16.6955 8.58173 16.6453 8.40675 16.5646C8.23178 16.484 8.07913 16.3747 7.95839 16.2437L0.914641 9.10844C0.700147 8.89565 0.582889 8.62874 0.582889 8.35329C0.582889 8.07784 0.700147 7.81093 0.914641 7.59814L8.20631 0.462862C8.35261 0.318945 8.53845 0.205181 8.74875 0.130796C8.95906 0.0564135 9.1879 0.0235041 9.41673 0.0347442Z"
          fill="black" fill-opacity="0.2"/>
</svg>
