<svg width="31" height="28" viewBox="0 0 31 28" fill="none" xmlns="http://www.w3.org/2000/svg">
    <path d="M29.94 10H28V5.00001C28 4.7348 27.8946 4.48044 27.7071 4.29291C27.5196 4.10537 27.2652 4.00001 27 4.00001H3C2.73478 4.00001 2.48043 3.89466 2.29289 3.70712C2.10536 3.51958 2 3.26523 2 3.00001C2 2.7348 2.10536 2.48044 2.29289 2.29291C2.48043 2.10537 2.73478 2.00001 3 2.00001H26.6C26.8652 2.00001 27.1196 1.89466 27.3071 1.70712C27.4946 1.51958 27.6 1.26523 27.6 1.00001C27.6 0.734798 27.4946 0.480444 27.3071 0.292908C27.1196 0.105371 26.8652 1.43003e-05 26.6 1.43003e-05H3C2.61389 -0.00794588 2.23 0.0602416 1.87025 0.200682C1.5105 0.341122 1.18195 0.551063 0.903357 0.818511C0.624765 1.08596 0.401594 1.40567 0.246593 1.75939C0.0915928 2.11311 0.00779937 2.4939 0 2.88001V23.88C0.00130889 24.4232 0.109764 24.9608 0.319154 25.4621C0.528544 25.9633 0.834755 26.4183 1.22025 26.801C1.60575 27.1837 2.06295 27.4866 2.56568 27.6923C3.06842 27.8981 3.6068 28.0026 4.15 28H27C27.2652 28 27.5196 27.8947 27.7071 27.7071C27.8946 27.5196 28 27.2652 28 27V22H29.94C30.0662 22.0096 30.1931 21.9932 30.3128 21.9521C30.4324 21.9109 30.5425 21.8457 30.6361 21.7605C30.7297 21.6753 30.805 21.5719 30.8572 21.4566C30.9095 21.3413 30.9376 21.2166 30.94 21.09V11.09C30.9433 10.8152 30.8417 10.5495 30.6559 10.3469C30.4701 10.1444 30.2141 10.0204 29.94 10ZM29 20H20.42C19.3952 19.9635 18.4267 19.5218 17.7274 18.7718C17.028 18.0218 16.6549 17.0249 16.69 16C16.6549 14.9751 17.028 13.9782 17.7274 13.2283C18.4267 12.4783 19.3952 12.0365 20.42 12H29V20Z" fill="#8E8E8E"/>
</svg>
